<svg width="10" height="29" viewBox="0 0 10 29" fill="none" xmlns="http://www.w3.org/2000/svg">
<path d="M7.28672 14.04C7.92672 14.1467 8.42005 14.2667 8.76672 14.4C9.14005 14.5067 9.32672 14.68 9.32672 14.92V27C9.32672 27.48 8.98005 27.8 8.28672 27.96C7.62005 28.12 6.96672 28.2 6.32672 28.2H0.886719V0.599998H5.40672C6.23339 0.599998 7.02005 0.733332 7.76672 0.999998C8.54005 1.26666 8.92672 1.77333 8.92672 2.52L8.88672 2.92L7.72672 13.12C7.72672 13.4133 7.70005 13.6133 7.64672 13.72C7.59339 13.8267 7.47339 13.9333 7.28672 14.04ZM3.16672 12.4C3.16672 12.6133 3.32672 12.72 3.64672 12.72L5.16672 12.12C5.40672 12.0667 5.52672 11.9467 5.52672 11.76L5.92672 3.12C5.92672 3.01333 5.74005 2.96 5.36672 2.96H3.64672C3.32672 2.96 3.16672 3.01333 3.16672 3.12V12.4ZM5.08672 25.96C5.56672 25.96 5.90005 25.8533 6.08672 25.64C6.30005 25.4267 6.40672 25.2133 6.40672 25C6.40672 24.84 6.38005 24.76 6.32672 24.76V15.76C6.40672 15.7067 6.44672 15.6667 6.44672 15.64C6.44672 15.56 6.35339 15.52 6.16672 15.52H4.48672C4.40672 15.52 4.31339 15.5467 4.20672 15.6C4.12672 15.6533 4.07339 15.7067 4.04672 15.76V25.84C4.07339 25.8667 4.12672 25.8933 4.20672 25.92C4.28672 25.9467 4.38005 25.96 4.48672 25.96H5.08672Z" fill="white"/>
</svg>
