<svg width="11" height="29" viewBox="0 0 11 29" fill="none" xmlns="http://www.w3.org/2000/svg">
<path d="M10.0803 29H4.36031C3.00031 29 1.98698 28.7733 1.32031 28.32C0.653646 27.84 0.320313 27.24 0.320313 26.52V2.84C0.320313 2.2 0.600313 1.66667 1.16031 1.24C1.72031 0.813332 2.50698 0.599998 3.52031 0.599998H10.0803V2.84L9.44031 7.84H6.80031L6.40031 3.32C6.40031 3.08 6.24031 2.96 5.92031 2.96H4.24031C3.73365 2.96 3.36031 3.17333 3.12031 3.6C2.90698 4 2.80031 4.45333 2.80031 4.96C2.80031 5.25333 2.84031 5.42667 2.92031 5.48L3.72031 25.44C3.64031 25.4667 3.60031 25.5067 3.60031 25.56C3.60031 25.64 3.72031 25.68 3.96031 25.68H6.32031C6.64031 25.68 6.80031 25.6 6.80031 25.44L7.60031 22.32H10.0803V29Z" fill="white"/>
</svg>
