<svg width="11" height="29" viewBox="0 0 11 29" fill="none" xmlns="http://www.w3.org/2000/svg">
<path d="M2.54094 28.2C1.95427 28.2 1.46094 27.9333 1.06094 27.4C0.660938 26.8667 0.460938 26.1067 0.460938 25.12V2.76L1.90094 0.599998H10.4209V6.56H8.70094L7.50094 2.96H4.82094C3.75427 2.96 3.19427 3.56 3.14094 4.76L3.86094 24.6C3.86094 24.7867 3.95427 24.96 4.14094 25.12C4.3276 25.2533 4.51427 25.32 4.70094 25.32H7.62094C7.8076 25.32 7.98094 25.28 8.14094 25.2C8.3276 25.0933 8.42094 24.9733 8.42094 24.84L8.82094 17.08L6.42094 17V14.76L10.9409 14.24V28.2H2.54094Z" fill="white"/>
</svg>
