<svg width="10" height="29" viewBox="0 0 10 29" fill="none" xmlns="http://www.w3.org/2000/svg">
<path d="M5.88578 0.599998C6.89912 0.599998 7.75245 0.799998 8.44578 1.2C9.13911 1.57333 9.48578 2.02667 9.48578 2.56V13.84C9.48578 14.1333 9.37911 14.5067 9.16578 14.96C8.97912 15.3867 8.57912 15.8 7.96578 16.2C7.35245 16.5733 6.48578 16.76 5.36578 16.76H3.24578V29H0.925781V2.24L0.0457813 1.76V0.599998H5.88578ZM3.80578 14.08C3.80578 14.16 3.84578 14.24 3.92578 14.32C4.03245 14.3733 4.15245 14.4 4.28578 14.4L6.00578 14C6.16578 14 6.24578 13.92 6.24578 13.76L6.64578 3.68C6.61911 3.33333 6.47245 3.04 6.20578 2.8C5.93911 2.53333 5.52578 2.4 4.96578 2.4H4.28578C3.96578 2.4 3.80578 2.49333 3.80578 2.68V14.08Z" fill="white"/>
</svg>
