<svg width="10" height="35" viewBox="0 0 10 35" fill="none" xmlns="http://www.w3.org/2000/svg">
<path d="M2.15281 0.599998H7.75281L9.35281 2.08V27.8H7.15281L9.71281 33.96L7.71281 34.24L6.91281 33.56L5.15281 27.8H0.632813V2.44L2.15281 0.599998ZM6.67281 3.44C6.67281 3.2 6.55281 3.08 6.31281 3.08H3.83281C3.59281 3.08 3.47281 3.2 3.47281 3.44L3.07281 24.76C3.07281 24.92 3.19281 25 3.43281 25H4.31281L3.91281 23.72L5.35281 23.36L6.03281 25C6.16615 25 6.29948 24.9733 6.43281 24.92C6.59281 24.8667 6.67281 24.8133 6.67281 24.76V3.44Z" fill="white"/>
</svg>
