<svg width="11" height="30" viewBox="0 0 11 30" fill="none" xmlns="http://www.w3.org/2000/svg">
<path d="M3.93328 29H1.61328V2.24L0.733281 1.76V0.599998H6.97328C7.98662 0.599998 8.82662 0.799998 9.49328 1.2C10.1866 1.57333 10.5466 2.02667 10.5733 2.56L10.1733 13.64C10.1733 14.04 9.98661 14.5333 9.61328 15.12C9.26662 15.68 8.61328 16.0933 7.65328 16.36L10.0133 20.76L10.8533 29L7.93328 29.12L7.29328 21.28L5.09328 16.56H3.93328V29ZM4.49328 13.68C4.49328 13.76 4.53328 13.84 4.61328 13.92C4.71995 13.9733 4.83995 14 4.97328 14H7.09328C7.25328 14 7.33328 13.92 7.33328 13.76L7.57328 3.64C7.57328 3.26667 7.39995 2.96 7.05328 2.72C6.73328 2.45333 6.03995 2.32 4.97328 2.32C4.65328 2.42666 4.49328 2.58666 4.49328 2.8V13.68Z" fill="white"/>
</svg>
