<svg width="250" height="250" viewBox="0 0 250 250" fill="none" xmlns="http://www.w3.org/2000/svg"><path fill="#201E50" d="M0 0h250v250H0z"/><rect x="12.5" y="144.5" width="224" height="49" rx="4.5" stroke="#DB1CC1"/><path d="M40.45 100.316h2.64v-13.68h-2.64v-9.84h2.76c0-4.88 1.18-8.46 3.54-10.74 2.4-2.28 5.88-3.42 10.44-3.42 2.2 0 4.16.16 5.88.48 1.76.32 3.04.68 3.84 1.08v9.42c-2.12-.2-4.08-.3-5.88-.3-1.56 0-2.64.26-3.24.78-.6.52-.9 1.42-.9 2.7h4.68v9.84h-4.68v13.68h4.68v9.84H40.45v-9.84Z" fill="#226F54"/><path d="m73.437 110.156-7.92-23.52h-2.52v-9.84h18.54v9.84h-2.52l2.16 9.36h.6l4.38-19.2h11.04l4.38 19.2h.6l2.1-9.36h-2.52v-9.84h17.4v9.84h-2.52l-7.62 23.52h-14.58l-3.3-16.68h-.6l-3.3 16.68h-13.8Zm65.284.84c-5.68 0-10.12-1.48-13.32-4.44-3.2-3-4.8-7.36-4.8-13.08s1.6-10.06 4.8-13.02c3.2-3 7.64-4.5 13.32-4.5 5.64 0 9.7 1.48 12.18 4.44 2.52 2.92 3.78 6.56 3.78 10.92v4.32h-19.44v.36c0 1.48.44 2.58 1.32 3.3.88.68 2.34 1.02 4.38 1.02 2.44 0 4.76-.18 6.96-.54 2.2-.36 4.12-.82 5.76-1.38v9.6c-1.4.76-3.46 1.46-6.18 2.1-2.68.6-5.6.9-8.76.9Zm3.48-21.96v-.72c0-1.36-.3-2.34-.9-2.94-.56-.6-1.42-.9-2.58-.9-1.16 0-2.04.32-2.64.96-.56.6-.84 1.56-.84 2.88v.72h6.96Zm32.145 21.96c-5.68 0-10.12-1.48-13.32-4.44-3.2-3-4.8-7.36-4.8-13.08s1.6-10.06 4.8-13.02c3.2-3 7.64-4.5 13.32-4.5 5.64 0 9.7 1.48 12.18 4.44 2.52 2.92 3.78 6.56 3.78 10.92v4.32h-19.44v.36c0 1.48.44 2.58 1.32 3.3.88.68 2.34 1.02 4.38 1.02 2.44 0 4.76-.18 6.96-.54 2.2-.36 4.12-.82 5.76-1.38v9.6c-1.4.76-3.46 1.46-6.18 2.1-2.68.6-5.6.9-8.76.9Zm3.48-21.96v-.72c0-1.36-.3-2.34-.9-2.94-.56-.6-1.42-.9-2.58-.9-1.16 0-2.04.32-2.64.96-.56.6-.84 1.56-.84 2.88v.72h6.96Zm40.005 21.96c-2.04 0-3.86-.5-5.46-1.5-1.56-1-2.84-2.14-3.84-3.42v4.08h-16.44v-9.84h2.64v-27h-2.64v-9.84h16.44v17.4c1-1.28 2.28-2.42 3.84-3.42 1.6-1 3.42-1.5 5.46-1.5 4.08 0 7.14 1.52 9.18 4.56 2.08 3.04 3.12 7.36 3.12 12.96 0 5.6-1.04 9.92-3.12 12.96-2.04 3.04-5.1 4.56-9.18 4.56Zm-5.82-10.68c1.16 0 2.02-.3 2.58-.9.6-.64.9-1.62.9-2.94v-6c0-1.32-.3-2.28-.9-2.88-.56-.64-1.42-.96-2.58-.96-1.16 0-2.04.32-2.64.96-.56.6-.84 1.56-.84 2.88v6c0 1.32.28 2.3.84 2.94.6.6 1.48.9 2.64.9Z" fill="#226F54"/><path d="M34.026 97.282h2.64v-13.68h-2.64v-9.84h2.76c0-4.88 1.18-8.46 3.54-10.74 2.4-2.28 5.88-3.42 10.44-3.42 2.2 0 4.16.16 5.88.48 1.76.32 3.04.68 3.84 1.08v9.42c-2.12-.2-4.08-.3-5.88-.3-1.56 0-2.64.26-3.24.78-.6.52-.9 1.42-.9 2.7h4.68v9.84h-4.68v13.68h4.68v9.84h-21.12v-9.84Z" fill="#FAA916"/><path d="m67.013 107.122-7.92-23.52h-2.52v-9.84h18.54v9.84h-2.52l2.16 9.36h.6l4.38-19.2h11.04l4.38 19.2h.6l2.1-9.36h-2.52v-9.84h17.4v9.84h-2.52l-7.62 23.52h-14.58l-3.3-16.68h-.6l-3.3 16.68h-13.8Zm65.284.84c-5.68 0-10.12-1.48-13.32-4.44-3.2-3-4.8-7.36-4.8-13.08s1.6-10.06 4.8-13.02c3.2-3 7.64-4.5 13.32-4.5 5.64 0 9.7 1.48 12.18 4.44 2.52 2.92 3.78 6.56 3.78 10.92v4.32h-19.44v.36c0 1.48.44 2.58 1.32 3.3.88.68 2.34 1.02 4.38 1.02 2.44 0 4.76-.18 6.96-.54 2.2-.36 4.12-.82 5.76-1.38v9.6c-1.4.76-3.46 1.46-6.18 2.1-2.68.6-5.6.9-8.76.9Zm3.48-21.96v-.72c0-1.36-.3-2.34-.9-2.94-.56-.6-1.42-.9-2.58-.9-1.16 0-2.04.32-2.64.96-.56.6-.84 1.56-.84 2.88v.72h6.96Zm32.145 21.96c-5.68 0-10.12-1.48-13.32-4.44-3.2-3-4.8-7.36-4.8-13.08s1.6-10.06 4.8-13.02c3.2-3 7.64-4.5 13.32-4.5 5.64 0 9.7 1.48 12.18 4.44 2.52 2.92 3.78 6.56 3.78 10.92v4.32h-19.44v.36c0 1.48.44 2.58 1.32 3.3.88.68 2.34 1.02 4.38 1.02 2.44 0 4.76-.18 6.96-.54 2.2-.36 4.12-.82 5.76-1.38v9.6c-1.4.76-3.46 1.46-6.18 2.1-2.68.6-5.6.9-8.76.9Zm3.48-21.96v-.72c0-1.36-.3-2.34-.9-2.94-.56-.6-1.42-.9-2.58-.9-1.16 0-2.04.32-2.64.96-.56.6-.84 1.56-.84 2.88v.72h6.96Zm40.005 21.96c-2.04 0-3.86-.5-5.46-1.5-1.56-1-2.84-2.14-3.84-3.42v4.08h-16.44v-9.84h2.64v-27h-2.64v-9.84h16.44v17.4c1-1.28 2.28-2.42 3.84-3.42 1.6-1 3.42-1.5 5.46-1.5 4.08 0 7.14 1.52 9.18 4.56 2.08 3.04 3.12 7.36 3.12 12.96 0 5.6-1.04 9.92-3.12 12.96-2.04 3.04-5.1 4.56-9.18 4.56Zm-5.82-10.68c1.16 0 2.02-.3 2.58-.9.6-.64.9-1.62.9-2.94v-6c0-1.32-.3-2.28-.9-2.88-.56-.64-1.42-.96-2.58-.96-1.16 0-2.04.32-2.64.96-.56.6-.84 1.56-.84 2.88v6c0 1.32.28 2.3.84 2.94.6.6 1.48.9 2.64.9Z" fill="#FAA916"/><path d="M29.438 94.249h2.64v-13.68h-2.64v-9.84h2.76c0-4.88 1.18-8.46 3.54-10.74 2.4-2.28 5.88-3.42 10.44-3.42 2.2 0 4.16.16 5.88.48 1.76.32 3.04.68 3.84 1.08v9.42c-2.12-.2-4.08-.3-5.88-.3-1.56 0-2.64.26-3.24.78-.6.52-.9 1.42-.9 2.7h4.68v9.84h-4.68v13.68h4.68v9.84h-21.12v-9.84Z" fill="#DA2C38"/><path d="m62.425 104.089-7.92-23.52h-2.52v-9.84h18.54v9.84h-2.52l2.16 9.36h.6l4.38-19.2h11.04l4.38 19.2h.6l2.1-9.36h-2.52v-9.84h17.4v9.84h-2.52l-7.62 23.52h-14.58l-3.3-16.68h-.6l-3.3 16.68h-13.8Zm65.283.84c-5.68 0-10.12-1.48-13.32-4.44-3.2-3-4.8-7.36-4.8-13.08s1.6-10.06 4.8-13.02c3.2-3 7.64-4.5 13.32-4.5 5.64 0 9.7 1.48 12.18 4.44 2.52 2.92 3.78 6.56 3.78 10.92v4.32h-19.44v.36c0 1.48.44 2.58 1.32 3.3.88.68 2.34 1.02 4.38 1.02 2.44 0 4.76-.18 6.96-.54 2.2-.36 4.12-.82 5.76-1.38v9.6c-1.4.76-3.46 1.46-6.18 2.1-2.68.6-5.6.9-8.76.9Zm3.48-21.96v-.72c0-1.36-.3-2.34-.9-2.94-.56-.6-1.42-.9-2.58-.9-1.16 0-2.04.32-2.64.96-.56.6-.84 1.56-.84 2.88v.72h6.96Zm32.145 21.96c-5.68 0-10.12-1.48-13.32-4.44-3.2-3-4.8-7.36-4.8-13.08s1.6-10.06 4.8-13.02c3.2-3 7.64-4.5 13.32-4.5 5.64 0 9.7 1.48 12.18 4.44 2.52 2.92 3.78 6.56 3.78 10.92v4.32h-19.44v.36c0 1.48.44 2.58 1.32 3.3.88.68 2.34 1.02 4.38 1.02 2.44 0 4.76-.18 6.96-.54 2.2-.36 4.12-.82 5.76-1.38v9.6c-1.4.76-3.46 1.46-6.18 2.1-2.68.6-5.6.9-8.76.9Zm3.48-21.96v-.72c0-1.36-.3-2.34-.9-2.94-.56-.6-1.42-.9-2.58-.9-1.16 0-2.04.32-2.64.96-.56.6-.84 1.56-.84 2.88v.72h6.96Zm40.005 21.96c-2.04 0-3.86-.5-5.46-1.5-1.56-1-2.84-2.14-3.84-3.42v4.08h-16.44v-9.84h2.64v-27h-2.64v-9.84h16.44v17.4c1-1.28 2.28-2.42 3.84-3.42 1.6-1 3.42-1.5 5.46-1.5 4.08 0 7.14 1.52 9.18 4.56 2.08 3.04 3.12 7.36 3.12 12.96 0 5.6-1.04 9.92-3.12 12.96-2.04 3.04-5.1 4.56-9.18 4.56Zm-5.82-10.68c1.16 0 2.02-.3 2.58-.9.6-.64.9-1.62.9-2.94v-6c0-1.32-.3-2.28-.9-2.88-.56-.64-1.42-.96-2.58-.96-1.16 0-2.04.32-2.64.96-.56.6-.84 1.56-.84 2.88v6c0 1.32.28 2.3.84 2.94.6.6 1.48.9 2.64.9Z" fill="#DA2C38"/><path d="M23.014 90.204h2.64v-13.68h-2.64v-9.84h2.76c0-4.88 1.18-8.46 3.54-10.74 2.4-2.28 5.88-3.42 10.44-3.42 2.2 0 4.16.16 5.88.48 1.76.32 3.04.68 3.84 1.08v9.42c-2.12-.2-4.08-.3-5.88-.3-1.56 0-2.64.26-3.24.78-.6.52-.9 1.42-.9 2.7h4.68v9.84h-4.68v13.68h4.68v9.84h-21.12v-9.84Z" fill="#DB1CC1"/><path d="m56.001 100.044-7.92-23.52h-2.52v-9.84h18.54v9.84h-2.52l2.16 9.36h.6l4.38-19.2h11.04l4.38 19.2h.6l2.1-9.36h-2.52v-9.84h17.4v9.84h-2.52l-7.62 23.52h-14.58l-3.3-16.68h-.6l-3.3 16.68h-13.8Zm65.283.84c-5.68 0-10.12-1.48-13.32-4.44-3.2-3-4.8-7.36-4.8-13.08s1.6-10.06 4.8-13.02c3.2-3 7.64-4.5 13.32-4.5 5.64 0 9.7 1.48 12.18 4.44 2.52 2.92 3.78 6.56 3.78 10.92v4.32h-19.44v.36c0 1.48.44 2.58 1.32 3.3.88.68 2.34 1.02 4.38 1.02 2.44 0 4.76-.18 6.96-.54 2.2-.36 4.12-.82 5.76-1.38v9.6c-1.4.76-3.46 1.46-6.18 2.1-2.68.6-5.6.9-8.76.9Zm3.48-21.96v-.72c0-1.36-.3-2.34-.9-2.94-.56-.6-1.42-.9-2.58-.9-1.16 0-2.04.32-2.64.96-.56.6-.84 1.56-.84 2.88v.72h6.96Zm32.145 21.96c-5.68 0-10.12-1.48-13.32-4.44-3.2-3-4.8-7.36-4.8-13.08s1.6-10.06 4.8-13.02c3.2-3 7.64-4.5 13.32-4.5 5.64 0 9.7 1.48 12.18 4.44 2.52 2.92 3.78 6.56 3.78 10.92v4.32h-19.44v.36c0 1.48.44 2.58 1.32 3.3.88.68 2.34 1.02 4.38 1.02 2.44 0 4.76-.18 6.96-.54 2.2-.36 4.12-.82 5.76-1.38v9.6c-1.4.76-3.46 1.46-6.18 2.1-2.68.6-5.6.9-8.76.9Zm3.48-21.96v-.72c0-1.36-.3-2.34-.9-2.94-.56-.6-1.42-.9-2.58-.9-1.16 0-2.04.32-2.64.96-.56.6-.84 1.56-.84 2.88v.72h6.96Zm40.005 21.96c-2.04 0-3.86-.5-5.46-1.5-1.56-1-2.84-2.14-3.84-3.42v4.08h-16.44v-9.84h2.64v-27h-2.64v-9.84h16.44v17.4c1-1.28 2.28-2.42 3.84-3.42 1.6-1 3.42-1.5 5.46-1.5 4.08 0 7.14 1.52 9.18 4.56 2.08 3.04 3.12 7.36 3.12 12.96 0 5.6-1.04 9.92-3.12 12.96-2.04 3.04-5.1 4.56-9.18 4.56Zm-5.82-10.68c1.16 0 2.02-.3 2.58-.9.6-.64.9-1.62.9-2.94v-6c0-1.32-.3-2.28-.9-2.88-.56-.64-1.42-.96-2.58-.96-1.16 0-2.04.32-2.64.96-.56.6-.84 1.56-.84 2.88v6c0 1.32.28 2.3.84 2.94.6.6 1.48.9 2.64.9Z" fill="#DB1CC1"/><path d="M19.802 86.16h2.64V72.48h-2.64v-9.84h2.76c0-4.88 1.18-8.46 3.54-10.74 2.4-2.28 5.88-3.42 10.44-3.42 2.2 0 4.16.16 5.88.48 1.76.32 3.04.68 3.84 1.08v9.42c-2.12-.2-4.08-.3-5.88-.3-1.56 0-2.64.26-3.24.78-.6.52-.9 1.42-.9 2.7h4.68v9.84h-4.68v13.68h4.68V96h-21.12v-9.84Z" fill="#fff"/><path d="m52.79 96-7.92-23.52h-2.52v-9.84h18.54v9.84h-2.52l2.16 9.36h.6l4.38-19.2h11.04l4.38 19.2h.6l2.1-9.36h-2.52v-9.84h17.4v9.84h-2.52L88.37 96H73.79l-3.3-16.68h-.6L66.59 96h-13.8Zm65.282.84c-5.68 0-10.12-1.48-13.32-4.44-3.2-3-4.8-7.36-4.8-13.08s1.6-10.06 4.8-13.02c3.2-3 7.64-4.5 13.32-4.5 5.64 0 9.7 1.48 12.18 4.44 2.52 2.92 3.78 6.56 3.78 10.92v4.32h-19.44v.36c0 1.48.44 2.58 1.32 3.3.88.68 2.34 1.02 4.38 1.02 2.44 0 4.76-.18 6.96-.54 2.2-.36 4.12-.82 5.76-1.38v9.6c-1.4.76-3.46 1.46-6.18 2.1-2.68.6-5.6.9-8.76.9Zm3.48-21.96v-.72c0-1.36-.3-2.34-.9-2.94-.56-.6-1.42-.9-2.58-.9-1.16 0-2.04.32-2.64.96-.56.6-.84 1.56-.84 2.88v.72h6.96Zm32.145 21.96c-5.68 0-10.12-1.48-13.32-4.44-3.2-3-4.8-7.36-4.8-13.08s1.6-10.06 4.8-13.02c3.2-3 7.64-4.5 13.32-4.5 5.64 0 9.7 1.48 12.18 4.44 2.52 2.92 3.78 6.56 3.78 10.92v4.32h-19.44v.36c0 1.48.44 2.58 1.32 3.3.88.68 2.34 1.02 4.38 1.02 2.44 0 4.76-.18 6.96-.54 2.2-.36 4.12-.82 5.76-1.38v9.6c-1.4.76-3.46 1.46-6.18 2.1-2.68.6-5.6.9-8.76.9Zm3.48-21.96v-.72c0-1.36-.3-2.34-.9-2.94-.56-.6-1.42-.9-2.58-.9-1.16 0-2.04.32-2.64.96-.56.6-.84 1.56-.84 2.88v.72h6.96Zm40.005 21.96c-2.04 0-3.86-.5-5.46-1.5-1.56-1-2.84-2.14-3.84-3.42V96h-16.44v-9.84h2.64v-27h-2.64v-9.84h16.44v17.4c1-1.28 2.28-2.42 3.84-3.42 1.6-1 3.42-1.5 5.46-1.5 4.08 0 7.14 1.52 9.18 4.56 2.08 3.04 3.12 7.36 3.12 12.96 0 5.6-1.04 9.92-3.12 12.96-2.04 3.04-5.1 4.56-9.18 4.56Zm-5.82-10.68c1.16 0 2.02-.3 2.58-.9.6-.64.9-1.62.9-2.94v-6c0-1.32-.3-2.28-.9-2.88-.56-.64-1.42-.96-2.58-.96-1.16 0-2.04.32-2.64.96-.56.6-.84 1.56-.84 2.88v6c0 1.32.28 2.3.84 2.94.6.6 1.48.9 2.64.9Z" fill="#fff"/></svg>
